<svg width="27" height="16" viewBox="0 0 27 16" fill="none" xmlns="http://www.w3.org/2000/svg">
<rect x="0.5" y="0.5" width="25.6667" height="15" rx="2.5" fill="#3DD595" fill-opacity="0.4" stroke="#3DD595"/>
<circle cx="13.3334" cy="7.99998" r="6.66667" fill="#3DD595"/>
<circle cx="3.33331" cy="12.6667" r="2" fill="#3DD595"/>
<circle cx="3.33331" cy="3.33331" r="2" fill="#3DD595"/>
<circle cx="24.6667" cy="8.66669" r="2" fill="#3DD595"/>
<path d="M8.57386 11H9.62784V8.86932H10.7017L11.8438 11H13.0199L11.7614 8.69318C12.446 8.41761 12.8068 7.83239 12.8068 7.04261C12.8068 5.93182 12.0909 5.18182 10.7557 5.18182H8.57386V11ZM9.62784 7.99432V6.0625H10.5938C11.3807 6.0625 11.733 6.4233 11.733 7.04261C11.733 7.66193 11.3807 7.99432 10.5994 7.99432H9.62784ZM13.7315 12.6364H14.7599V10.3125H14.8026C14.9645 10.6307 15.3026 11.0767 16.0526 11.0767C17.081 11.0767 17.8509 10.2614 17.8509 8.82386C17.8509 7.36932 17.0582 6.57955 16.0497 6.57955C15.2798 6.57955 14.9588 7.04261 14.8026 7.35795H14.7429V6.63636H13.7315V12.6364ZM14.7401 8.81818C14.7401 7.97159 15.1037 7.4233 15.7656 7.4233C16.4503 7.4233 16.8026 8.00568 16.8026 8.81818C16.8026 9.63636 16.4446 10.233 15.7656 10.233C15.1094 10.233 14.7401 9.66477 14.7401 8.81818Z" fill="#A1DEC5"/>
</svg>
